<svg xmlns="http://www.w3.org/2000/svg" viewBox="2619.521 2749.174 315.509 315.51">
  <defs>
    <style>
      .cls-1 {
        opacity: 0.313;
      }

      .cls-2 {
        fill: #f2059f;
      }

      .cls-3, .cls-4, .cls-6 {
        fill: none;
      }

      .cls-3 {
        stroke: rgba(127,24,121,0.1);
      }

      .cls-3, .cls-4 {
        stroke-width: 10px;
      }

      .cls-4 {
        stroke: rgba(236,85,36,0.31);
      }

      .cls-5 {
        stroke: none;
      }
    </style>
  </defs>
  <g id="Group_121" data-name="Group 121" transform="translate(2596.365 2660.889)">
    <g id="Group_109" data-name="Group 109" class="cls-1" transform="translate(57.892 123.02)">
      <path id="Subtraction_1" data-name="Subtraction 1" class="cls-2" d="M123.529,247.059a124.438,124.438,0,0,1-24.9-2.51,122.851,122.851,0,0,1-44.171-18.587A123.889,123.889,0,0,1,9.708,171.612a122.907,122.907,0,0,1-7.2-23.188,124.734,124.734,0,0,1,0-49.791A122.854,122.854,0,0,1,21.1,54.463,123.89,123.89,0,0,1,75.446,9.708a122.9,122.9,0,0,1,23.188-7.2,124.732,124.732,0,0,1,49.791,0A122.851,122.851,0,0,1,192.6,21.1,123.891,123.891,0,0,1,237.35,75.446a122.911,122.911,0,0,1,7.2,23.188,124.733,124.733,0,0,1,0,49.791A122.851,122.851,0,0,1,225.961,192.6a123.889,123.889,0,0,1-54.349,44.755,122.906,122.906,0,0,1-23.187,7.2A124.441,124.441,0,0,1,123.529,247.059Zm0-229.837a107.092,107.092,0,0,0-21.425,2.16,105.726,105.726,0,0,0-38.013,16A106.618,106.618,0,0,0,25.576,82.15,105.778,105.778,0,0,0,19.382,102.1a107.344,107.344,0,0,0,0,42.849,105.726,105.726,0,0,0,16,38.013A106.617,106.617,0,0,0,82.15,221.482a105.772,105.772,0,0,0,19.955,6.194,107.345,107.345,0,0,0,42.849,0,105.724,105.724,0,0,0,38.012-16,106.615,106.615,0,0,0,38.515-46.772,105.765,105.765,0,0,0,6.194-19.955,107.34,107.34,0,0,0,0-42.849,105.727,105.727,0,0,0-16-38.013,106.616,106.616,0,0,0-46.772-38.516,105.776,105.776,0,0,0-19.955-6.194A107.092,107.092,0,0,0,123.529,17.222Z" transform="translate(0 0)"/>
    </g>
    <g id="Ellipse_253" data-name="Ellipse 253" class="cls-3" transform="translate(23.157 88.285)">
      <ellipse class="cls-5" cx="157.755" cy="157.755" rx="157.755" ry="157.755"/>
      <ellipse class="cls-6" cx="157.755" cy="157.755" rx="152.755" ry="152.755"/>
    </g>
    <g id="Ellipse_254" data-name="Ellipse 254" class="cls-4" transform="translate(40.524 105.652)">
      <ellipse class="cls-5" cx="140.387" cy="140.387" rx="140.387" ry="140.387"/>
      <ellipse class="cls-6" cx="140.387" cy="140.387" rx="135.387" ry="135.387"/>
    </g>
  </g>
</svg>
